PathFileType	4	(X/Y/Z)	./resultDataOpenSim/trcMotMarkerGrf/sub10/qtm-13-08.trc
DataRate	CameraRate	NumFrames	NumMarkers	Units	OrigDataRate	OrigDataStartFrame	OrigNumFrames
250.000000	250.000000	9	24	m	250.000000	133	529
Frame#	Time	L.Toe.Tip			R.Toe.Tip			L.Ankle.Lat			R.Ankle.Lat			L.Ankle.Med			R.Ankle.Med			L.Heel			R.Heel			L.Knee.Lat			R.Knee.Lat			L.Knee.Med			R.Knee.Med			L.Thigh.Upper			R.Thigh.Upper			L.ASIS			R.ASIS			V.Sacral			L.Acromium			R.Acromium			C7			L.Elbow			R.Elbow			L.Wrist.Lat			R.Wrist.Lat
		X1	Y1	Z1	X2	Y2	Z2	X3	Y3	Z3	X4	Y4	Z4	X5	Y5	Z5	X6	Y6	Z6	X7	Y7	Z7	X8	Y8	Z8	X9	Y9	Z9	X10	Y10	Z10	X11	Y11	Z11	X12	Y12	Z12	X13	Y13	Z13	X14	Y14	Z14	X15	Y15	Z15	X16	Y16	Z16	X17	Y17	Z17	X18	Y18	Z18	X19	Y19	Z19	X20	Y20	Z20	X21	Y21	Z21	X22	Y22	Z22	X23	Y23	Z23	X24	Y24	Z24

133	0.528	-0.39724672	0.060773522	-0.14379739	-0.67186099	0.039721722	-0.0037282928	-0.52819998	0.092188615	-0.1601471	-0.81510224	0.052100931	0.027748865	-0.5100529	0.11072261	-0.077078188	-0.7933378	0.083539131	-0.053234427	-0.58847365	0.06035719	-0.1101443	-0.8631191	0.029782644	-0.023733391	-0.47419763	0.48101845	-0.16553288	-0.73015533	0.44725892	0.093658896	-0.45452734	0.45517568	-0.046749785	-0.71994269	0.45413331	-0.037503857	-0.6285033	0.82638151	-0.21841349	-0.68866593	0.86103499	0.15901576	-0.59328243	0.94174631	-0.14860624	-0.61046342	0.94772369	0.096201477	-0.8033103	0.9526545	-0.044341774	-0.67144804	1.4118637	-0.1811133	-0.6904174	1.4082284	0.14348542	-0.76494336	1.4371359	-0.02720048	-0.77068823	1.0847965	-0.24871992	-0.72799975	1.0598075	0.21565491	-0.65305569	0.87019613	-0.25612598	-0.5532084	0.88698269	0.24102257
134	0.532	-0.37831171	0.062274235	-0.14179343	-0.67194969	0.039679132	-0.0038045172	-0.51014537	0.089541586	-0.15859264	-0.81510934	0.05209719	0.02769147	-0.49274908	0.10887186	-0.075438616	-0.79325396	0.083529475	-0.053316643	-0.56924665	0.055998643	-0.10850027	-0.86312791	0.029810678	-0.023775074	-0.46805384	0.48029699	-0.16477792	-0.72746097	0.44676542	0.093184794	-0.44857248	0.45469708	-0.04587471	-0.71813096	0.45385343	-0.037684734	-0.62213258	0.82603688	-0.21831016	-0.68522746	0.86053068	0.15882612	-0.5874193	0.94125762	-0.14829128	-0.6066275	0.94684016	0.096618397	-0.79819758	0.95191858	-0.045437338	-0.66640601	1.4110904	-0.18083659	-0.68550337	1.4075188	0.14376069	-0.76010136	1.4364586	-0.026896195	-0.76728329	1.0846354	-0.24865792	-0.72066751	1.0586811	0.21645364	-0.6514998	0.86911823	-0.25646842	-0.54307353	0.88841923	0.24051209
135	0.536	-0.35950507	0.06391887	-0.13967646	-0.67199287	0.039630306	-0.0038500696	-0.49201874	0.087153022	-0.15694739	-0.81512718	0.052089874	0.027671506	-0.47545346	0.10732827	-0.0737136	-0.79316914	0.083533778	-0.053413355	-0.55024516	0.052099337	-0.1070015	-0.86313758	0.029842875	-0.023812014	-0.46207732	0.47939421	-0.16407087	-0.724849	0.44622772	0.092655943	-0.4428618	0.45404733	-0.045208801	-0.71622335	0.45353231	-0.037882908	-0.61566781	0.82562019	-0.21821143	-0.68174993	0.85999446	0.15862447	-0.58160634	0.94072754	-0.1480179	-0.60251111	0.94596483	0.096978636	-0.79328366	0.95106143	-0.046667951	-0.66133149	1.4102717	-0.18055822	-0.68057197	1.4067416	0.14404385	-0.75515065	1.4357266	-0.026645648	-0.76394376	1.084397	-0.24887695	-0.71332468	1.0575099	0.21722215	-0.64991561	0.86803152	-0.2568056	-0.53300631	0.88985973	0.23996693
136	0.54	-0.34084112	0.065734397	-0.13743733	-0.67199862	0.03959389	-0.0038710011	-0.47388936	0.085032358	-0.15520241	-0.81517506	0.052076862	0.027722265	-0.45820143	0.10609057	-0.071930454	-0.79307143	0.083537742	-0.053533622	-0.53144492	0.048648659	-0.10548278	-0.86314958	0.029877594	-0.023824604	-0.45622656	0.47831756	-0.16343807	-0.72250778	0.44576995	0.092282864	-0.43734332	0.45323624	-0.044691646	-0.7141503	0.45316823	-0.038080389	-0.60906175	0.82514725	-0.21811797	-0.67822753	0.85943374	0.15840046	-0.57581056	0.94014239	-0.14775965	-0.59804533	0.94512527	0.097284179	-0.7884451	0.9500687	-0.048029747	-0.65621532	1.4094028	-0.18027821	-0.67561893	1.405906	0.14433043	-0.75012198	1.4349454	-0.026419801	-0.76056071	1.0841423	-0.24893077	-0.70596885	1.0562951	0.21796422	-0.6482958	0.86692923	-0.25714259	-0.52292917	0.89130165	0.2393737
137	0.544	-0.32235793	0.067733429	-0.13508183	-0.67198129	0.039568323	-0.0038759137	-0.45584959	0.083186356	-0.15333153	-0.8152498	0.052055974	0.027836986	-0.44102232	0.105177	-0.070098032	-0.79297062	0.083521835	-0.053702698	-0.51282456	0.045665975	-0.10379674	-0.86316292	0.029915243	-0.02381197	-0.45043835	0.47708039	-0.16290129	-0.72031505	0.44539044	0.092053235	-0.43198291	0.45228225	-0.044267653	-0.71189971	0.45275294	-0.038273278	-0.6024146	0.82461381	-0.21804376	-0.67464765	0.85885791	0.1581481	-0.56996989	0.93948822	-0.14749771	-0.59342127	0.94430338	0.097549247	-0.78337089	0.94893293	-0.04960087	-0.65103278	1.4084805	-0.17999889	-0.67062721	1.4050125	0.14460262	-0.74505463	1.4341169	-0.026192794	-0.75706756	1.0839081	-0.24853969	-0.69859979	1.0550395	0.21868342	-0.64664208	0.86580725	-0.25748918	-0.51283591	0.89274163	0.23872934
138	0.548	-0.30410699	0.069927713	-0.13260059	-0.6719494	0.039532111	-0.0038688053	-0.43796422	0.081623758	-0.15132263	-0.81531361	0.052030088	0.027957515	-0.42395277	0.10460098	-0.068191919	-0.79286383	0.08348205	-0.053906556	-0.4943683	0.043144646	-0.10187121	-0.86317576	0.029958709	-0.023800824	-0.444639	0.47570013	-0.16246721	-0.71814259	0.44503689	0.091895643	-0.42675013	0.45119153	-0.043903093	-0.70948295	0.45226939	-0.038466175	-0.59587966	0.82400197	-0.21798144	-0.6709993	0.85826322	0.1578815	-0.56405152	0.93876275	-0.14723032	-0.58884686	0.94345746	0.097784292	-0.77775353	0.94764568	-0.051548543	-0.64576997	1.4075079	-0.17972139	-0.66559294	1.4040552	0.14485054	-0.7399687	1.4332365	-0.025954087	-0.75351571	1.0836554	-0.2478987	-0.69121921	1.0537464	0.21938252	-0.64497028	0.86466516	-0.25785811	-0.50276235	0.8941733	0.2380403
139	0.552	-0.2861449	0.072333659	-0.1299668	-0.67190718	0.039460908	-0.0038525546	-0.42026358	0.080348504	-0.1491915	-0.81532723	0.052003871	0.028030746	-0.40706264	0.10433904	-0.066144587	-0.79272977	0.08342714	-0.05409712	-0.47601931	0.040987823	-0.099771326	-0.86318694	0.030010696	-0.023817922	-0.43876934	0.47419142	-0.16213097	-0.71604809	0.44464658	0.091761829	-0.4216077	0.44996172	-0.043576969	-0.70689307	0.45170206	-0.038659384	-0.5895098	0.82330144	-0.21789473	-0.66728676	0.85761882	0.1576389	-0.55803932	0.93797443	-0.14695462	-0.58438368	0.94256401	0.097994661	-0.77166703	0.94626478	-0.053912169	-0.64046343	1.4064881	-0.17944907	-0.66053736	1.4030347	0.14508569	-0.73486854	1.4322987	-0.025705544	-0.74996802	1.0833216	-0.2472453	-0.68382967	1.0524166	0.22006326	-0.64329999	0.86350208	-0.25825543	-0.49274407	0.89558573	0.23731397
140	0.556	-0.26852365	0.074963973	-0.12715172	-0.67186067	0.039356741	-0.0038347472	-0.40278096	0.079358007	-0.14696543	-0.81528365	0.051978758	0.028052476	-0.39045804	0.1043373	-0.063918516	-0.79255727	0.083364028	-0.054248368	-0.45772391	0.039067224	-0.097663408	-0.86319561	0.030072469	-0.023866146	-0.43282205	0.47256964	-0.16188081	-0.71423414	0.44414433	0.091589132	-0.41652757	0.44859634	-0.04327454	-0.70411371	0.45105476	-0.038839601	-0.58324143	0.82251434	-0.21775654	-0.66353071	0.85688193	0.15746089	-0.55191126	0.93713971	-0.14666332	-0.5799966	0.94162976	0.098190872	-0.76564242	0.94494909	-0.056326991	-0.63519232	1.4054163	-0.17918975	-0.65549508	1.4019625	0.14533171	-0.72975266	1.4313028	-0.025452161	-0.74642946	1.0828874	-0.24659304	-0.67643274	1.0510492	0.22072587	-0.6416313	0.86231831	-0.2586723	-0.48280186	0.89696653	0.23655513
141	0.56	-0.25129069	0.077811423	-0.12414666	-0.67181825	0.039253288	-0.0038239811	-0.38557787	0.078646743	-0.14467866	-0.81520152	0.051955195	0.028046358	-0.37422313	0.10455156	-0.061599828	-0.79235553	0.083294988	-0.054367031	-0.43955236	0.037351804	-0.095628336	-0.86320035	0.030143259	-0.023930337	-0.42685356	0.47085575	-0.16169775	-0.71267392	0.44345038	0.091252921	-0.4114967	0.44710793	-0.042983752	-0.70116762	0.45035238	-0.038991463	-0.57698342	0.8216457	-0.21757733	-0.65975238	0.85604921	0.1573466	-0.54566728	0.93627361	-0.14635434	-0.57564421	0.94067202	0.098387127	-0.76014615	0.94384296	-0.058156643	-0.6299991	1.4042846	-0.17894868	-0.65048974	1.4008472	0.1455971	-0.7246195	1.4302508	-0.025197013	-0.74289709	1.0823748	-0.24594305	-0.66902823	1.0496436	0.22136849	-0.63993519	0.86111954	-0.25908835	-0.47294449	0.89830849	0.23576371
